<?xml version="1.0" standalone="no"?>
<!DOCTYPE svg PUBLIC "-//W3C//DTD SVG 1.1//EN" "http://www.w3.org/Graphics/SVG/1.1/DTD/svg11.dtd" >
<svg xmlns="http://www.w3.org/2000/svg">
<metadata></metadata>
<defs>
<font id="museo_slab_700regular" horiz-adv-x="1157" >
<font-face units-per-em="2048" ascent="1536" descent="-512" />
<missing-glyph horiz-adv-x="512" />
<glyph unicode="&#xfb01;" horiz-adv-x="1449" d="M84 850v194h162v48q0 96 30 168t73 111.5t102.5 63.5t106.5 31t97 7q31 0 76 -5l31 -4v-209l-21 5q-14 2 -59 2q-176 0 -176 -164v-54h733v-849h152v-195h-562v195h152v655h-475v-655h176v-195h-588v195h152v655h-162zM979 1223v231h262v-231h-262z" />
<glyph unicode="&#xfb02;" horiz-adv-x="1423" d="M84 850v194h162v27q0 116 44 200.5t121 131t166.5 67.5t196.5 21q139 0 305 -29q52 -9 125 -28v-1086q0 -77 22.5 -110t88.5 -33q8 0 19 1t14 1h12v-209l-29 -4q-18 -2 -67 -2q-54 0 -97 7.5t-86 30t-72 59.5t-47 98.5t-18 144.5v938q-6 1 -47 10q-58 10 -135 10 q-117 0 -186.5 -50.5t-69.5 -162.5v-33h235v-194h-235v-655h176v-195h-588v195h152v655h-162z" />
<glyph unicode="&#xfb03;" horiz-adv-x="2185" d="M84 850v194h162v48q0 96 30 168t73 111.5t102.5 63.5t106.5 31t97 7q31 0 76 -5l31 -4v-209l-21 5q-14 2 -59 2q-176 0 -176 -164v-54h475v48q0 96 30 168t73 111.5t102 63.5t106.5 31t96.5 7q32 0 77 -5l31 -4v-209l-20 5q-14 2 -60 2q-178 0 -178 -164v-54h735v-849 h152v-195h-563v195h151v655h-475v-655h178v-195h-588v195h152v655h-475v-655h176v-195h-588v195h152v655h-162zM1712 1223v231h264v-231h-264z" />
<glyph unicode="&#xfb04;" horiz-adv-x="2158" d="M84 850v194h162v48q0 96 30 168t73 111.5t102 63.5t106.5 31t97.5 7q31 0 76 -5l31 -4v-209l-21 5q-14 2 -57 2q-178 0 -178 -164v-54h475v27q0 116 44 200.5t121 131t166.5 67.5t196.5 21q140 0 306 -29q48 -9 124 -28v-1086q0 -77 22.5 -110t88.5 -33q8 0 18 1t13 1h14 v-209l-29 -4q-18 -2 -69 -2q-53 0 -96 7.5t-85.5 30t-71.5 59.5t-47 98.5t-18 144.5v938l-49 10q-58 10 -133 10q-116 0 -187 -51t-71 -162v-33h238v-194h-238v-655h178v-195h-588v195h152v655h-475v-655h176v-195h-588v195h152v655h-162z" />
<glyph horiz-adv-x="2048" />
<glyph horiz-adv-x="2048" />
<glyph unicode="&#xd;" horiz-adv-x="2048" />
<glyph unicode=" "  horiz-adv-x="512" />
<glyph unicode="&#x09;" horiz-adv-x="512" />
<glyph unicode="&#xa0;" horiz-adv-x="512" />
<glyph unicode="!" horiz-adv-x="544" d="M137 1454h271l-23 -1034h-227zM147 0v244h252v-244h-252z" />
<glyph unicode="&#x22;" horiz-adv-x="757" d="M119 1024v457h192v-457h-192zM446 1024v457h193v-457h-193z" />
<glyph unicode="#" horiz-adv-x="1456" d="M78 383l31 186h243l51 287h-241l33 188h241l72 410h207l-72 -410h281l71 410h209l-71 -410h245l-30 -188h-246l-51 -287h243l-30 -186h-246l-66 -383h-209l66 383h-279l-67 -383h-207l66 383h-244zM561 569h281l51 287h-281z" />
<glyph unicode="$" horiz-adv-x="1138" d="M78 205l139 186q64 -50 109 -76q130 -77 252 -77q92 0 154.5 47t62.5 129q0 39 -23.5 71.5t-63.5 56t-92 45.5t-109 44.5t-114.5 47.5t-109.5 59.5t-92 76t-63.5 101t-23.5 131.5q0 148 106 255.5t277 135.5v223h177v-219q144 -12 270 -82q51 -29 90 -68l-109 -200 q-39 34 -96 63q-118 62 -223 62q-101 0 -164 -44.5t-63 -121.5q0 -46 29.5 -83.5t78 -62.5t110.5 -51.5t127 -49.5t127 -58t110.5 -75t78 -103t29.5 -140q0 -159 -105.5 -275.5t-289.5 -140.5v-219h-177v219q-167 20 -303 109q-64 42 -106 84z" />
<glyph unicode="%" horiz-adv-x="1619" d="M80 1155q0 133 97 228.5t237 95.5q138 0 236 -96t98 -228q0 -135 -98 -229.5t-236 -94.5q-141 0 -237.5 94.5t-96.5 229.5zM131 0l1116 1454h240l-1116 -1454h-240zM279 1155q0 -57 39 -96t96 -39t97 39t40 96q0 56 -40 95.5t-97 39.5t-96 -39.5t-39 -95.5zM874 297 q0 133 97 228.5t237 95.5q138 0 236 -96t98 -228q0 -133 -98 -227.5t-236 -94.5q-140 0 -237 94t-97 228zM1073 299q0 -57 39 -96t96 -39t97.5 39t40.5 96q0 56 -40.5 95.5t-97.5 39.5t-96 -39.5t-39 -95.5z" />
<glyph unicode="&#x26;" horiz-adv-x="1400" d="M88 410q0 125 69 224t189 140v4q-53 23 -98 68q-98 98 -98 250q0 94 37.5 168t103.5 120.5t151.5 70.5t184.5 24q49 0 133 -13l59 -12l-61 -209l-31 6q-27 6 -68 6q-106 0 -174.5 -51t-68.5 -141q0 -37 11 -71t35 -64.5t69.5 -49t107.5 -18.5h272v197h258v-197h189v-213 h-189v-180q0 -223 -145 -358.5t-395 -135.5q-241 0 -391 124.5t-150 310.5zM356 432q0 -99 74.5 -160t200.5 -61q132 0 206 69t74 203v166h-288q-125 0 -196 -56.5t-71 -160.5z" />
<glyph unicode="'" horiz-adv-x="434" d="M119 1024v457h196v-457h-196z" />
<glyph unicode="(" horiz-adv-x="671" d="M127 702q0 428 244 816h219q-232 -393 -232 -818q0 -471 232 -895h-219q-117 189 -180.5 418t-63.5 479z" />
<glyph unicode=")" horiz-adv-x="673" d="M82 -195q231 422 231 895q0 437 -231 818h221q244 -388 244 -816q0 -250 -63.5 -479t-180.5 -418h-221z" />
<glyph unicode="*" horiz-adv-x="989" d="M78 1065l69 221l248 -100l-18 268h235l-20 -268l250 100l71 -219l-260 -66v-4l172 -202l-186 -138l-141 226h-4l-142 -226l-188 136l172 204v4z" />
<glyph unicode="+" horiz-adv-x="1267" d="M86 483v203h442v485h211v-485h443v-203h-443v-483h-211v483h-442z" />
<glyph unicode="," horiz-adv-x="559" d="M31 -244l147 508h258l-207 -508h-198z" />
<glyph unicode="-" horiz-adv-x="952" d="M168 471v227h616v-227h-616z" />
<glyph unicode="." horiz-adv-x="546" d="M143 0v262h260v-262h-260z" />
<glyph unicode="/" horiz-adv-x="897" d="M76 -86l522 1614h223l-522 -1614h-223z" />
<glyph unicode="0" horiz-adv-x="1275" d="M111 729q0 130 16.5 239t55 205t98 162.5t150.5 105t208 38.5q116 0 207 -38.5t150 -105t97.5 -162.5t55 -205t16.5 -239t-16.5 -239.5t-55 -206t-97.5 -164t-150 -106t-207 -38.5q-117 0 -208 38.5t-150.5 106t-98 164t-55 206t-16.5 239.5zM383 729q0 -116 12 -205 t40 -162t79.5 -112t124.5 -39q72 0 123.5 39t79.5 112t40.5 162.5t12.5 204.5q0 514 -256 514q-73 0 -124.5 -39t-79.5 -111.5t-40 -161t-12 -202.5z" />
<glyph unicode="1" horiz-adv-x="1034" d="M82 1104l364 350h232v-1239h313v-215h-889v215h318v819q0 13 1 36.5t1 31.5v31h-4l-15 -23q-25 -35 -49 -59l-116 -111z" />
<glyph unicode="2" horiz-adv-x="1216" d="M90 129q0 84 24 158.5t64 131.5t92.5 108t110 93t115 81t110 77.5t92.5 77t64 84.5t24 96q0 100 -62 153.5t-159 53.5q-110 0 -200 -90q-40 -39 -74 -92l-185 127q45 82 111 145q158 146 371 146q130 0 236.5 -50t172.5 -149t66 -231q0 -72 -23 -137.5t-62 -116t-90 -97 t-107 -85t-112 -75.5t-107.5 -74t-91 -74.5t-64 -82t-25.5 -92.5h502v184h229v-399h-1008q-14 82 -14 129z" />
<glyph unicode="3" horiz-adv-x="1187" d="M80 170l131 188q33 -33 94 -73q112 -74 240 -74q115 0 188.5 65.5t73.5 165.5q0 107 -79 168.5t-206 61.5q-19 0 -46.5 -2t-33.5 -2l-59 129l315 385q22 25 41 41l21 18v4q-19 0 -29 -2q-32 -4 -53 -4h-320v-172h-229v387h918v-186l-342 -406q72 -10 137 -40.5t119 -79.5 t86 -124t32 -165q0 -94 -34.5 -179.5t-98.5 -152.5t-164 -106.5t-221 -39.5q-190 0 -356 99q-76 47 -125 96z" />
<glyph unicode="4" horiz-adv-x="1257" d="M49 375v162l629 917h313v-872h187v-207h-187v-375h-262v375h-680zM324 582h405v485q0 45 6 82l6 43h-6l-16 -37q-8 -18 -41 -74l-354 -495v-4z" />
<glyph unicode="5" horiz-adv-x="1175" d="M78 162l127 190q37 -40 88 -69q117 -72 235 -72q120 0 203.5 71.5t83.5 180.5q0 113 -78.5 182.5t-216.5 69.5q-87 0 -172 -33q-34 -14 -63 -33l-148 56l68 749h790v-387h-229v172h-332l-28 -285q0 -4 -5 -39l-4 -18h4q6 3 45 16q66 17 132 17q229 0 368 -132t139 -329 q0 -211 -152 -352.5t-388 -141.5q-184 0 -346 95q-68 39 -121 92z" />
<glyph unicode="6" horiz-adv-x="1239" d="M102 655q0 123 26 240.5t81 223.5t134 186t192 127t247 47q112 0 211 -31q34 -11 80 -31l-76 -221q-33 18 -59 25q-61 22 -147 22q-83 0 -152 -33t-116 -90t-78 -126t-46 -148h4q41 47 119.5 74.5t167.5 27.5q137 0 245.5 -66.5t166 -176t57.5 -238.5 q0 -134 -62.5 -246.5t-177 -179t-255.5 -66.5q-117 0 -219 46.5t-178.5 132t-120.5 215t-44 286.5zM377 549q0 -77 36 -154.5t103.5 -130.5t145.5 -53q103 0 164 71t61 187q0 114 -72.5 189t-212.5 75q-99 0 -162 -51.5t-63 -132.5z" />
<glyph unicode="7" horiz-adv-x="1128" d="M76 1067v387h1018v-184l-637 -1270h-275l580 1161q21 40 35 60l14 20v4q-17 0 -27 -2q-32 -4 -67 -4h-414v-172h-227z" />
<glyph unicode="8" horiz-adv-x="1241" d="M100 412q0 61 19.5 119.5t46 98.5t61.5 77t57 55t42 31q-168 123 -168 290q0 76 29 145.5t84.5 126t146.5 90.5t205 34q210 0 344.5 -108t134.5 -286q0 -64 -20 -128t-51 -112.5t-52.5 -76.5t-40.5 -47q199 -125 199 -315q0 -83 -35 -160t-99 -137.5t-163 -97t-217 -36.5 q-232 0 -377.5 127t-145.5 310zM365 440q0 -102 75 -168.5t183 -66.5q102 0 173.5 58t71.5 147q0 25 -8 47.5t-19 40t-34.5 36t-42 31t-55 30.5t-60 28t-71 30.5t-74.5 32.5q-25 -21 -40 -36t-42.5 -48.5t-42 -74.5t-14.5 -87zM418 1079q0 -26 8 -49.5t18.5 -41.5t33 -36.5 t39 -30t51.5 -29t54.5 -26t62.5 -26.5t63 -27q98 113 98 242q0 92 -60 143t-161 51q-100 0 -153.5 -47.5t-53.5 -122.5z" />
<glyph unicode="9" horiz-adv-x="1239" d="M80 987q0 134 62.5 246.5t177 179t255.5 66.5q117 0 219 -47t178.5 -132.5t120.5 -215t44 -285.5q0 -121 -25.5 -237.5t-80.5 -223t-133.5 -187t-192.5 -128.5t-250 -48q-112 0 -211 31q-23 8 -82 31l76 221q33 -15 61 -22q70 -25 147 -25q84 0 154 33t117 90t78 126.5 t45 149.5h-4q-41 -44 -120.5 -72t-166.5 -28q-137 0 -246 66.5t-166 175t-57 235.5zM352 987q0 -112 72 -186t205 -74q97 0 165 52t68 134q0 123 -86.5 226.5t-200.5 103.5q-101 0 -162 -72.5t-61 -183.5z" />
<glyph unicode=":" horiz-adv-x="612" d="M176 0v262h260v-262h-260zM176 780v264h260v-264h-260z" />
<glyph unicode=";" horiz-adv-x="616" d="M63 -244l127 508h261l-189 -508h-199zM193 780v264h253v-264h-253z" />
<glyph unicode="&#x3c;" horiz-adv-x="1267" d="M109 502v168l985 438v-227l-711 -293v-4l711 -293v-228z" />
<glyph unicode="=" horiz-adv-x="1267" d="M133 274v201h1000v-201h-1000zM133 694v201h1000v-201h-1000z" />
<glyph unicode="&#x3e;" horiz-adv-x="1267" d="M172 63v228l711 293v4l-711 293v227l985 -438v-168z" />
<glyph unicode="?" horiz-adv-x="989" d="M63 1335q47 41 103 74q125 74 283 74q116 0 217 -45t166 -134.5t65 -205.5q0 -69 -19.5 -127.5t-51.5 -100.5t-70 -79t-76 -69.5t-70 -65t-51.5 -72t-19.5 -84.5v-80h-250v98q0 69 25 129t62 99.5t81 80.5t81 74t62 78t25 94q0 72 -57 121t-142 49q-79 0 -152 -43 l-65 -43zM287 0v244h252v-244h-252z" />
<glyph unicode="@" horiz-adv-x="1648" d="M76 494q0 158 58.5 297.5t162 242t253.5 162t324 59.5q137 0 242.5 -36t168.5 -99t94.5 -141.5t31.5 -169.5v-512h148v-186h-566q-100 0 -184.5 32t-139.5 85t-85.5 121.5t-30.5 142.5q0 155 119.5 264.5t320.5 109.5h172q0 77 -88 129t-213 52q-114 0 -213.5 -45.5 t-168.5 -121.5t-108.5 -178.5t-39.5 -214.5q0 -109 39 -207.5t109.5 -173.5t176 -119t230.5 -44v-203q-179 0 -332 58.5t-258 159.5t-164 239.5t-59 296.5zM811 494q0 -81 55.5 -139t143.5 -58h155v401h-151q-92 0 -147.5 -58t-55.5 -146z" />
<glyph unicode="A" horiz-adv-x="1492" d="M25 0v201h133l436 1253h305l436 -1253h133v-201h-546v201h143l-90 272h-459l-90 -272h143v-201h-544zM578 682h335l-137 412l-22 90q-4 28 -4 37h-7l-6 -37q-3 -10 -9 -39.5t-11 -50.5z" />
<glyph unicode="B" horiz-adv-x="1411" d="M102 0v201h174v1050h-174v203h668q164 0 260 -39q101 -39 161 -127.5t60 -208.5q0 -104 -46 -185.5t-132 -125.5v-4q117 -35 176.5 -128.5t59.5 -215.5q0 -146 -82 -251t-207 -144q-78 -25 -217 -25h-701zM545 215h270q70 0 105 16q54 23 85 79t31 126q0 95 -56.5 153 t-154.5 58h-280v-432zM545 860h256q85 0 131.5 52t46.5 139q0 120 -84 166q-49 22 -125 22h-225v-379z" />
<glyph unicode="C" horiz-adv-x="1525" d="M88 733q0 211 99 382.5t270.5 267.5t380.5 96q59 0 127 -8t148 -29t143.5 -52.5t106 -84t42.5 -117.5v-197h-244v113q0 39 -31 68.5t-80 45.5t-100 23.5t-100 7.5q-212 0 -348.5 -139t-136.5 -365q0 -242 140.5 -391t358.5 -149q39 0 87.5 6.5t102.5 21.5t90 45t36 70 v113h243v-199q0 -62 -40.5 -113t-103 -82.5t-141.5 -53t-151.5 -30t-138.5 -8.5q-217 0 -391.5 100.5t-271.5 273.5t-97 384z" />
<glyph unicode="D" horiz-adv-x="1599" d="M102 0v201h174v1050h-174v203h629q195 0 303 -35q217 -62 344 -245t127 -447q0 -257 -119.5 -435.5t-330.5 -248.5q-120 -43 -322 -43h-631zM545 215h176q151 0 237 37q127 52 199 175t72 300q0 182 -74.5 305t-206.5 174q-51 21 -100 27t-127 6h-176v-1024z" />
<glyph unicode="E" horiz-adv-x="1310" d="M102 0v201h174v1050h-174v203h1080v-375h-230v160h-407v-399h479v-215h-479v-410h438v164h229v-379h-1110z" />
<glyph unicode="F" horiz-adv-x="1204" d="M102 0v201h174v1050h-174v203h1039v-377h-230v150h-366v-418h473v-215h-473v-393h192v-201h-635z" />
<glyph unicode="G" horiz-adv-x="1572" d="M88 733q0 215 97 385t272.5 265.5t398.5 95.5q100 0 199 -19t182.5 -54t135.5 -91t52 -123v-201h-243v107q0 48 -46.5 83t-116.5 51.5t-151 16.5q-231 0 -366 -137t-135 -369q0 -238 138.5 -388t375.5 -150q50 0 102.5 7t107 22.5t89 47t34.5 74.5v156h-264v201h508v-439 q0 -78 -63 -139t-159.5 -94t-195 -49.5t-186.5 -16.5q-165 0 -307.5 58t-243 158t-158 240.5t-57.5 301.5z" />
<glyph unicode="H" horiz-adv-x="1751" d="M102 0v201h174v1050h-174v203h619v-203h-176v-420h661v420h-176v203h619v-203h-174v-1050h174v-201h-619v201h176v415h-661v-415h176v-201h-619z" />
<glyph unicode="I" horiz-adv-x="825" d="M102 0v201h174v1050h-174v203h619v-203h-176v-1050h176v-201h-619z" />
<glyph unicode="J" horiz-adv-x="1159" d="M41 414v100h258v-78q0 -98 43.5 -161.5t140.5 -63.5q81 0 130 55t49 170v815h-201v203h622v-203h-153v-825q0 -90 -25.5 -166t-69 -127.5t-101 -88t-121.5 -53t-132 -16.5q-85 0 -161.5 25.5t-140 76.5t-101 138t-37.5 199z" />
<glyph unicode="K" horiz-adv-x="1462" d="M102 0v201h174v1050h-174v203h582v-203h-139v-395h162l276 395h-125v203h533v-203h-131l-351 -481v-4q20 -12 31 -23q34 -31 64 -86l223 -405q26 -51 96 -51h68v-201h-187q-87 0 -129 24.5t-76 84.5l-254 479q-17 29 -41 41t-67 12h-92v-440h168v-201h-611z" />
<glyph unicode="L" horiz-adv-x="1257" d="M104 0v201h175v1038h-175v215h619v-215h-176v-1024h430v225h229v-440h-1102z" />
<glyph unicode="M" horiz-adv-x="1986" d="M78 0v201h172l86 1050h-176v203h473l323 -821q12 -29 27 -88l8 -33h4l9 33q14 52 28 88l322 821h473v-203h-174l84 -1050h172v-201h-596v201h162l-54 733q-1 10 -1 23q0 26 3 63l4 49h-6q-3 -20 -10 -45q-11 -48 -25 -84l-278 -670h-229l-279 670q-11 34 -22 84 q-9 32 -11 45h-8l4 -49q3 -38 3 -64q0 -13 -1 -22l-53 -733h164v-201h-598z" />
<glyph unicode="N" horiz-adv-x="1734" d="M102 0v201h174v1050h-174v203h443l612 -936q15 -24 37 -80l16 -43h7l-5 49q-4 62 -4 88v719h-180v203h623v-203h-174v-1251h-269l-612 932q-18 31 -37 80l-16 43h-8l6 -47q4 -59 4 -81v-7v-719h180v-201h-623z" />
<glyph unicode="O" horiz-adv-x="1679" d="M86 737q0 154 58 291t157.5 236t240 157t298.5 58q211 0 384 -98t271 -268.5t98 -375.5q0 -211 -98 -386t-271 -275.5t-384 -100.5q-158 0 -298.5 59.5t-240 161t-157.5 242.5t-58 299zM362 737q0 -147 64.5 -268.5t174 -189.5t239.5 -68t239 68t173.5 189.5t64.5 268.5 q0 141 -64.5 257.5t-173.5 182.5t-239 66t-239.5 -66t-174 -182.5t-64.5 -257.5z" />
<glyph unicode="P" horiz-adv-x="1357" d="M102 0v201h174v1050h-174v203h697q159 0 245 -37q120 -50 190.5 -164t70.5 -266q0 -156 -75 -277t-202 -165q-86 -29 -223 -29h-260v-315h176v-201h-619zM545 731h225q85 0 148 29q118 58 118 227q0 156 -106 217q-59 35 -158 35h-227v-508z" />
<glyph unicode="Q" horiz-adv-x="1689" d="M88 733q0 155 57.5 293t156.5 237.5t240 157.5t302 58q211 0 383.5 -93t272 -260.5t99.5 -375.5q0 -266 -165 -474l165 -149l-151 -168l-164 162q-187 -146 -440 -146q-160 0 -301 59.5t-240.5 161.5t-157 242t-57.5 295zM365 733q0 -145 63 -265t173 -188.5t243 -68.5 q149 0 256 82l-205 196l147 164l205 -202q82 134 82 286q0 214 -140 360t-345 146q-203 0 -341 -145.5t-138 -364.5z" />
<glyph unicode="R" horiz-adv-x="1468" d="M102 0v201h174v1050h-174v203h641q175 0 277 -31q127 -43 197.5 -141t70.5 -248q0 -152 -72.5 -256t-201.5 -147v-4l24 -19q36 -36 47 -57l168 -303q16 -28 38 -37.5t61 -9.5h47v-201h-170q-88 0 -128.5 22.5t-74.5 86.5l-207 374q-24 43 -52 58.5t-89 15.5h-133v-356 h168v-201h-611zM545 772h241q108 0 171 62.5t63 177.5q0 153 -115 200q-59 27 -164 27h-196v-467z" />
<glyph unicode="S" horiz-adv-x="1218" d="M98 303v166h244v-109q0 -67 74.5 -108t181.5 -41q113 0 182.5 47t69.5 133q0 21 -5.5 40.5t-12.5 35.5t-23 32t-28 27t-35.5 24.5t-38.5 22t-45 21t-46 19t-50.5 19.5t-49.5 19q-51 20 -83.5 34t-77.5 37t-73.5 44.5t-60 54t-49 68t-29.5 82.5t-12 102q0 85 26.5 154.5 t72 115.5t108.5 77t132.5 45t147.5 14q119 0 221.5 -27.5t171 -87.5t68.5 -141v-191h-243v98q0 53 -65 83t-153 30q-95 0 -156 -40.5t-61 -119.5q0 -36 14.5 -66.5t34.5 -51t58.5 -41.5t67.5 -33.5t81 -32.5q7 -2 10.5 -3.5t9.5 -4t11 -4.5q55 -19 93.5 -34t87.5 -38.5 t82.5 -46.5t68 -56t55.5 -70t34 -86t13 -105q0 -108 -43 -193t-116.5 -136.5t-166.5 -78.5t-198 -27q-93 0 -180.5 21t-160 60.5t-116 103.5t-43.5 143z" />
<glyph unicode="T" horiz-adv-x="1384" d="M55 1020v434h1274v-434h-227v219h-277v-1038h176v-201h-618v201h174v1038h-274v-219h-228z" />
<glyph unicode="U" horiz-adv-x="1656" d="M63 1251v203h619v-203h-176v-704q0 -126 49 -207q38 -61 110 -95t164 -34q191 0 273 131q49 82 49 207v702h-174v203h616v-203h-174v-704q0 -222 -106 -365q-78 -102 -205 -154.5t-279 -52.5q-156 0 -282 53.5t-201 151.5q-108 136 -108 367v704h-175z" />
<glyph unicode="V" horiz-adv-x="1472" d="M20 1251v203h568v-203h-154l273 -829q6 -18 11 -49.5t7 -38.5l6 -43h8l6 43q2 8 5.5 25.5t7.5 33t8 29.5l270 829h-151v203h567v-203h-135l-443 -1251h-278l-442 1251h-134z" />
<glyph unicode="W" horiz-adv-x="2082" d="M29 1251v203h567v-203h-170l188 -829q10 -54 13 -86l4 -41h8l6 41q3 11 8 40t9 46l272 1032h215l272 -1032q4 -17 10.5 -46.5t8.5 -39.5q4 -28 4 -41h8l4 41q3 41 12 86l189 829h-170v203h567v-203h-133l-309 -1251h-301l-244 918q-4 17 -9 47t-7 41l-7 45h-6 q0 -17 -4 -45q-6 -43 -18 -88l-244 -918h-301l-309 1251h-133z" />
<glyph unicode="X" horiz-adv-x="1417" d="M66 0v201h129l366 536l-356 514h-129v203h549v-203h-144l201 -301q22 -25 31 -43q8 -12 10 -18h4l1 1q1 1 2.5 4t4 7t6 9.5t7 11.5t8.5 13.5t10 14.5l195 301h-140v203h529v-203h-127l-369 -534l363 -516h129v-201h-551v201h143l-203 305q-24 31 -30 45q-10 15 -11 18h-4 q-3 0 -7 -7.5t-13.5 -24.5t-18.5 -31l-194 -305h141v-201h-532z" />
<glyph unicode="Y" horiz-adv-x="1347" d="M20 1251v203h541v-203h-141l221 -381q12 -19 23 -45q3 -4 8 -20h4q5 16 8 20q7 16 25 45l221 381h-139v203h536v-203h-131l-387 -643v-407h174v-201h-618v201h176v407l-387 643h-134z" />
<glyph unicode="Z" horiz-adv-x="1316" d="M106 0v170l699 1001q25 36 41 52l20 18v4q-16 0 -26 -2q-32 -4 -58 -4h-438v-219h-227v434h1073v-168l-698 -1003q-18 -27 -41 -50l-21 -20v-4l27 4q16 2 57 2h469v225h229v-440h-1106z" />
<glyph unicode="[" horiz-adv-x="675" d="M186 -195v1713h404v-189h-182v-1335h182v-189h-404z" />
<glyph unicode="\" horiz-adv-x="894" d="M76 1528h221l522 -1614h-221z" />
<glyph unicode="]" horiz-adv-x="675" d="M86 -6h182v1335h-182v189h403v-1713h-403v189z" />
<glyph unicode="^" horiz-adv-x="1267" d="M133 502l412 952h164l411 -952h-225l-268 678l-269 -678h-225z" />
<glyph unicode="_" horiz-adv-x="1165" d="M8 0h1149v-201h-1149v201z" />
<glyph unicode="`" horiz-adv-x="1009" d="M248 1829h280l224 -279h-228z" />
<glyph unicode="a" d="M57 293q0 66 24 120t62.5 89.5t92.5 62.5t106.5 42t113 24t103.5 11.5t86 2.5h66v35q0 94 -52.5 137t-140.5 43q-97 0 -205 -49q-37 -16 -90 -51l-96 180q55 42 113 66q137 63 301 63q211 0 320.5 -105.5t109.5 -306.5v-417q0 -45 45 -45h94v-195h-246q-68 0 -100.5 31.5 t-32.5 79.5v12q0 19 4 39q2 6 2 14h-4q-25 -51 -74 -100q-109 -101 -256 -101q-93 0 -170 34t-126.5 108t-49.5 176zM319 313q0 -62 41 -102.5t111 -40.5q101 0 171.5 89.5t70.5 193.5v34h-43q-32 0 -63 -2t-74 -7.5t-78.5 -18t-67.5 -31t-50 -48t-18 -67.5z" />
<glyph unicode="b" horiz-adv-x="1273" d="M2 1260v194h420v-453q0 -47 -2 -63q-2 -10 -2 -25h4q27 43 74 78q102 78 239 78q212 0 338.5 -151t126.5 -396q0 -246 -134.5 -396.5t-346.5 -150.5q-142 0 -242 84q-43 37 -69 82h-5q0 -10 3 -22q2 -14 2 -56v-63h-246v1260h-160zM416 516q0 -62 16 -118.5t47 -102.5 t81.5 -73t113.5 -27q111 0 187.5 87t76.5 236t-71.5 238.5t-188.5 89.5q-111 0 -186.5 -84t-75.5 -246z" />
<glyph unicode="c" horiz-adv-x="1142" d="M70 520q0 154 72.5 279.5t201.5 197.5t287 72q70 0 141 -14t137.5 -41.5t108 -78.5t41.5 -116v-143h-225v69q0 50 -60 76.5t-135 26.5q-141 0 -224 -89t-83 -233q0 -155 93.5 -243t233.5 -88q165 0 326 127l92 -185q-66 -63 -181 -112.5t-251 -49.5q-114 0 -218.5 38.5 t-183.5 107.5t-126 172.5t-47 226.5z" />
<glyph unicode="d" horiz-adv-x="1312" d="M74 522q0 248 132 397.5t345 149.5q144 0 233 -74q45 -38 68 -73h4q0 14 -2 20q-2 14 -2 53v265h-162v194h420v-1214q0 -45 45 -45h94v-195h-245q-68 0 -101 31.5t-33 79.5v12q0 15 4 35q3 9 3 12h-5q-27 -53 -73 -96q-111 -99 -269 -99q-207 0 -331.5 151.5 t-124.5 395.5zM336 522q0 -149 71 -238t187 -89q113 0 188.5 81.5t75.5 239.5q0 137 -67 233.5t-189 96.5q-114 0 -190 -87t-76 -237z" />
<glyph unicode="e" horiz-adv-x="1142" d="M72 522q0 242 147.5 394.5t382.5 152.5q218 0 341.5 -140.5t123.5 -355.5q0 -37 -2 -55l-4 -33h-723q12 -137 100.5 -213.5t212.5 -76.5q117 0 215 55q40 19 88 55l101 -184q-34 -30 -113 -72q-140 -74 -309 -74q-126 0 -233 44t-178 119t-110.5 174t-39.5 210zM344 639 h455q-4 107 -60.5 168t-142.5 61q-99 0 -166 -62t-86 -167z" />
<glyph unicode="f" horiz-adv-x="800" d="M84 850v194h162v48q0 96 30 168t73 111.5t102.5 63.5t106.5 31t97 7q31 0 76 -5l31 -4v-209l-21 5q-14 2 -59 2q-176 0 -176 -164v-54h235v-194h-235v-655h176v-195h-588v195h152v655h-162z" />
<glyph unicode="g" horiz-adv-x="1302" d="M76 549q0 146 51.5 262t158 187t253.5 71q101 0 192.5 -40.5t130.5 -117.5h4q0 7 -2 11t-2 24q0 44 30 71t89 27h260v-194h-100q-45 0 -45 -41v-746q0 -129 -47.5 -227t-127.5 -154.5t-175 -84t-201 -27.5q-203 0 -373 90l80 193q50 -24 84 -35q107 -35 205 -35 q131 0 213 64t82 198v66q0 26 2 36q2 6 2 19h-4q-100 -146 -291 -146q-146 0 -254 73t-161.5 191.5t-53.5 264.5zM338 557q0 -141 69 -229t193 -88q49 0 90 15.5t76.5 49t55.5 95.5t20 147q0 301 -258 301q-117 0 -181.5 -78t-64.5 -213z" />
<glyph unicode="h" horiz-adv-x="1390" d="M49 1260v194h422v-508q0 -47 -2 -63l-4 -25h4q41 84 138.5 147.5t221.5 63.5q365 0 365 -397v-477h152v-195h-412v618q0 105 -35.5 159t-128.5 54q-136 0 -217.5 -101.5t-81.5 -250.5v-284h150v-195h-562v195h152v1065h-162z" />
<glyph unicode="i" horiz-adv-x="716" d="M84 850v194h422v-849h149v-195h-561v195h152v655h-162zM244 1223v231h262v-231h-262z" />
<glyph unicode="j" horiz-adv-x="643" d="M-33 -211q7 0 13 -2t32 -2q34 0 65 7.5t66 26.5t56.5 62t21.5 105v864h-162v194h422v-1069q0 -100 -32.5 -175.5t-79.5 -116.5t-110.5 -66.5t-113.5 -33t-100 -7.5q-43 0 -57 2l-21 4v207zM221 1223v231h262v-231h-262z" />
<glyph unicode="k" horiz-adv-x="1243" d="M49 1260v194h422v-805h137l170 201h-121v194h502v-194h-135l-227 -268v-4q3 0 12.5 -6.5t29.5 -28.5t38 -54l147 -258q13 -22 30.5 -29t55.5 -7h59v-195h-194q-68 0 -101 17t-63 73l-188 330q-16 26 -35.5 32.5t-55.5 6.5h-61v-264h113v-195h-525v195h152v1065h-162z" />
<glyph unicode="l" horiz-adv-x="630" d="M-8 1260v194h420v-1106q0 -77 21.5 -110t84.5 -33q8 0 20 1t15 1h14v-209l-28 -4q-16 -2 -66 -2q-54 0 -97.5 7.5t-86 30t-71.5 59.5t-46.5 98.5t-17.5 144.5v928h-162z" />
<glyph unicode="m" horiz-adv-x="2041" d="M84 850v194h272q138 0 138 -116v-47q0 -23 -2 -31q-3 -9 -3 -14h5q46 91 142 162t214 71q234 0 291 -227h4q47 97 144.5 162t217.5 65q336 0 336 -397v-477h152v-195h-412v623q0 102 -29 155t-114 53t-147 -53t-90.5 -135t-28.5 -182v-266h151v-195h-410v623 q0 48 -5 81.5t-19 64.5t-43.5 46.5t-73.5 15.5q-88 0 -150.5 -57.5t-90 -141.5t-27.5 -183v-254h149v-195h-561v195h152v612q0 43 -45 43h-117z" />
<glyph unicode="n" horiz-adv-x="1427" d="M84 850v194h274q136 0 136 -116v-47q0 -23 -2 -31q-3 -9 -3 -14h5q4 13 18.5 37t47 59t74 64.5t107 51t138.5 21.5q350 0 350 -397v-477h151v-195h-409v618q0 105 -36.5 159t-129.5 54q-90 0 -160 -53t-104.5 -134.5t-34.5 -174.5v-274h149v-195h-561v195h152v610 q0 45 -45 45h-117z" />
<glyph unicode="o" horiz-adv-x="1288" d="M70 522q0 156 77 282t208 195.5t288 69.5q158 0 289.5 -69.5t209 -195.5t77.5 -282q0 -157 -77.5 -283t-208 -195t-288.5 -69q-159 0 -290 69t-208 194.5t-77 283.5zM334 522q0 -143 90.5 -234t220.5 -91t219.5 91t89.5 234q0 142 -89.5 234t-219.5 92t-220.5 -92 t-90.5 -234z" />
<glyph unicode="p" horiz-adv-x="1331" d="M59 850v194h269q129 0 129 -98v-6v-33q0 -10 -2 -14h4q23 42 76 88q103 88 260 88q211 0 336.5 -151t125.5 -396q0 -246 -134.5 -396.5t-342.5 -150.5q-134 0 -227 74q-47 37 -74 74h-4l4 -25q2 -16 2 -65v-248h152v-195h-563v195h151v1020q0 45 -45 45h-117zM473 516 q0 -131 69 -226t191 -95q112 0 187 86.5t75 236.5q0 149 -71.5 238.5t-188.5 89.5q-111 0 -186.5 -84t-75.5 -246z" />
<glyph unicode="q" horiz-adv-x="1271" d="M74 522q0 247 132 397t341 150q61 0 115.5 -16t93.5 -42.5t65 -51t45 -50.5h4q0 13 -2 19q-2 14 -2 49v67h244v-1259h152v-195h-562v195h152v258q0 50 2 66q2 10 2 24h-4q-27 -43 -74 -78q-105 -80 -239 -80q-212 0 -338.5 151.5t-126.5 395.5zM336 522q0 -149 71.5 -238 t188.5 -89q111 0 186.5 83.5t75.5 245.5q0 132 -68 227t-192 95q-109 0 -185.5 -87.5t-76.5 -236.5z" />
<glyph unicode="r" horiz-adv-x="911" d="M84 850v194h272q140 0 140 -126v-62q0 -33 -2 -47q-2 -6 -2 -18h4q38 118 126 193t205 75q25 0 33 -2q6 -2 14 -2v-256q-12 0 -18 2q-14 2 -45 2q-76 0 -136 -31.5t-96 -85.5t-54.5 -121t-18.5 -143v-227h149v-195h-561v195h152v610q0 45 -45 45h-117z" />
<glyph unicode="s" horiz-adv-x="1009" d="M72 227v121h221v-61q0 -52 59 -80.5t146 -28.5q81 0 129.5 27.5t48.5 79.5q0 28 -14.5 50t-42 38t-63.5 30.5t-82 30.5l-36 12q-41 15 -66.5 25t-64.5 28t-63 34.5t-52.5 42t-44.5 52.5t-27 63.5t-11 78.5q0 64 25 116t65.5 85t95 56t110.5 32.5t115 9.5q61 0 123.5 -12 t121 -36.5t95.5 -68.5t37 -100v-133h-223v59q0 41 -42 63.5t-112 22.5q-66 0 -108.5 -23.5t-42.5 -70.5q0 -58 56 -92t163 -64q60 -18 99 -32.5t91 -42.5t83 -59t53 -79.5t22 -107.5q0 -103 -61 -176.5t-158.5 -107.5t-220.5 -34q-100 0 -194 26.5t-162 86t-68 139.5z" />
<glyph unicode="t" horiz-adv-x="780" d="M41 850v194h168v285h252v-285h237v-194h-237v-440q0 -51 15 -90t37 -59.5t52 -33.5t54.5 -16.5t50.5 -3.5q8 0 20 1t15 1h12v-213l-23 -4q-14 -2 -57 -2q-36 0 -71 3t-79.5 13.5t-83 27.5t-77 47.5t-65 70.5t-43.5 99.5t-17 131.5v467h-160z" />
<glyph unicode="u" horiz-adv-x="1386" d="M45 850v194h422v-626q0 -103 36 -157t128 -54q87 0 154 54.5t101 138.5t34 180v270h-160v194h420v-806q0 -45 45 -45h100v-193h-258q-135 0 -135 117v39q0 8 1 19.5t1 14.5v15h-4q-5 -14 -19 -37.5t-46 -58.5t-72.5 -63.5t-105.5 -49.5t-138 -21q-163 0 -252.5 96 t-89.5 302v477h-162z" />
<glyph unicode="v" horiz-adv-x="1228" d="M20 850v194h502v-194h-116l180 -516q6 -16 13 -47l7 -31l6 -37h6l7 37l8 36t10 42l182 516h-118v194h501v-194h-125l-319 -850h-299l-318 850h-127z" />
<glyph unicode="w" horiz-adv-x="1775" d="M25 850v194h501v-194h-125l138 -510q8 -35 12 -76l4 -37h6l4 37q3 34 13 76l196 702h230l194 -702q8 -35 12 -76l4 -37h7l4 37q4 41 12 76l139 510h-127v194h502v-194h-125l-242 -850h-294l-181 612q-12 53 -14 78l-4 37h-6l-4 -37q-3 -39 -15 -78l-178 -612h-295 l-241 850h-127z" />
<glyph unicode="x" horiz-adv-x="1191" d="M80 0v195h149l230 337l-215 318h-160v194h322l161 -264q6 -9 15.5 -27t11.5 -22q9 -12 12 -24h4q2 10 13 24l28 49l164 264h299v-194h-145l-215 -311l237 -344h127v-195h-289l-184 293l-29 49q-9 12 -12 25h-4q-2 -10 -10 -25q-9 -21 -29 -51l-180 -291h-301z" />
<glyph unicode="y" horiz-adv-x="1241" d="M20 850v194h515v-194h-123l190 -528q4 -11 7.5 -24t6.5 -27.5t5 -22.5q4 -24 4 -35h6l6 35q14 55 22 74l189 528h-121v194h494v-194h-119l-385 -985q-58 -150 -165.5 -222.5t-248.5 -72.5q-93 0 -184 35q-36 13 -70 37l84 190q23 -16 43 -25q46 -24 115 -24q63 0 111 32 t73 89l29 65l-359 881h-125z" />
<glyph unicode="z" horiz-adv-x="1101" d="M94 0v166l529 625l41 43l18 16v4q-19 0 -29 -2q-16 -2 -59 -2h-272v-152h-222v346h891v-167l-524 -623q-7 -9 -41 -43l-18 -16v-5q13 0 28 3q16 2 58 2h294v149h224v-344h-918z" />
<glyph unicode="{" horiz-adv-x="729" d="M61 557v227q49 6 89 31q86 62 86 186v177q0 64 14 117t37 88t55 61.5t64 41.5t69.5 24t65.5 11.5t57 2.5h45q13 0 19 -2v-193q-2 2 -11 2h-26q-26 0 -50 -6t-52.5 -22t-46 -53.5t-17.5 -92.5v-223q0 -131 -84 -207q-39 -36 -86 -53v-4q49 -15 86 -49q84 -76 84 -209v-246 q0 -45 12.5 -78.5t30 -51t42 -28.5t43 -13.5t38.5 -2.5h26q9 0 11 2v-193q-13 0 -19 -2q-14 -2 -45 -2q-35 0 -68 4.5t-77 16t-80.5 36.5t-68.5 61.5t-50 95.5t-18 134v199q0 122 -86 184q-41 26 -89 29z" />
<glyph unicode="|" horiz-adv-x="587" d="M182 -330v1960h224v-1960h-224z" />
<glyph unicode="}" horiz-adv-x="729" d="M68 -6q2 -2 10 -2h26q20 0 38.5 2.5t43 13.5t42 28.5t30 51t12.5 78.5v246q0 133 84 209q37 34 84 49v4q-46 18 -84 53q-84 76 -84 207v223q0 55 -17.5 92.5t-46 53.5t-52.5 22t-50 6h-26q-8 0 -10 -2v193q6 2 18 2h45q42 0 82.5 -5.5t94 -27t92.5 -57t66.5 -101.5 t27.5 -155v-177q0 -123 88 -186q40 -25 86 -31v-227q-45 -3 -86 -29q-88 -63 -88 -184v-199q0 -75 -18.5 -134t-50.5 -95.5t-68.5 -61.5t-80.5 -36.5t-77.5 -16t-67.5 -4.5q-31 0 -45 2q-6 2 -18 2v193z" />
<glyph unicode="~" horiz-adv-x="1263" d="M123 408q0 372 313 372q57 0 104.5 -19t79.5 -46.5t60.5 -55t62 -46.5t70.5 -19q65 0 97 51t32 127h205q0 -373 -313 -373q-57 0 -104 19t-79 46.5t-60.5 54.5t-62.5 46t-71 19q-64 0 -95.5 -50.5t-31.5 -125.5h-207z" />
<glyph unicode="&#xa1;" horiz-adv-x="538" d="M135 -410l21 1033h227l20 -1033h-268zM141 799v243h254v-243h-254z" />
<glyph unicode="&#xa2;" d="M74 727q0 221 121.5 383.5t312.5 194.5v172h176v-172q135 -24 237 -112t154 -220l-235 -90q-33 81 -93 131.5t-143 50.5q-118 0 -192 -95t-74 -243q0 -155 71 -246.5t195 -91.5q84 0 143.5 49.5t92.5 132.5l235 -90q-51 -126 -151 -218t-240 -111v-177h-176v177 q-192 32 -313 193t-121 382z" />
<glyph unicode="&#xa3;" horiz-adv-x="1273" d="M86 0v207h172v430h-143v178h143v248q0 181 131 298.5t334 117.5q140 0 266 -70q48 -26 101 -72l-142 -176q-33 26 -65 41q-73 41 -154 41q-91 0 -147 -53.5t-56 -134.5v-240h348v-178h-348v-422h439v225h229v-440h-1108z" />
<glyph unicode="&#xa5;" horiz-adv-x="1314" d="M76 1454h301l190 -389q30 -66 62 -160l26 -74h4l27 74q21 63 62 160l190 389h301l-315 -594h200v-155h-280l-51 -99v-67h331v-158h-331v-381h-269v381h-334v158h334v67l-53 99h-281v155h201z" />
<glyph unicode="&#xa7;" horiz-adv-x="962" d="M80 -2l110 176q24 -22 66 -45q80 -45 166 -45q93 0 152 52t59 155q0 46 -19 117l-137 661h203l147 -704q15 -59 15 -117q0 -165 -111.5 -270t-308.5 -105q-136 0 -252 61q-54 28 -90 64zM119 1104q0 165 111.5 270t308.5 105q138 0 252 -64q49 -25 90 -63l-117 -166 q-30 23 -64 41q-66 39 -159 39q-97 0 -155 -47.5t-58 -145.5q0 -36 16 -102l141 -688h-202l-150 704q-14 55 -14 117z" />
<glyph unicode="&#xa8;" horiz-adv-x="1009" d="M176 1591v238h213v-238h-213zM621 1591v238h213v-238h-213z" />
<glyph unicode="&#xa9;" horiz-adv-x="1632" d="M82 727q0 154 58 293t156 239t233 159t284 59q151 0 287.5 -59t235 -159t156.5 -239t58 -293q0 -153 -58 -292.5t-156.5 -240t-235 -160t-287.5 -59.5q-149 0 -284 59.5t-233 160t-156 240t-58 292.5zM264 727q0 -162 72 -296.5t198 -212t279 -77.5q155 0 283 77.5 t201 212t73 296.5t-73 296t-201 211t-283 77q-153 0 -279 -77t-198 -211t-72 -296zM440 723q0 167 109 283t274 116q160 0 258 -106q47 -47 74 -109l-156 -73q-11 25 -41 59q-59 59 -129 59q-90 0 -145 -65t-55 -164q0 -101 53 -165t147 -64q70 0 129 59q30 34 41 59 l156 -71q-27 -59 -74 -109q-100 -108 -258 -108q-165 0 -274 116t-109 283z" />
<glyph unicode="&#xaa;" horiz-adv-x="864" d="M135 985q0 225 381 225h16v15q0 106 -116 106q-59 0 -117 -26q-16 -7 -51 -29l-68 121q31 22 70 39q80 39 192 39q133 0 204 -70.5t71 -196.5v-411h-170v90h-4q-17 -31 -43 -51q-60 -52 -144 -52q-88 0 -154.5 54.5t-66.5 146.5zM137 545v139h588v-139h-588zM322 997 q0 -31 21.5 -50t59.5 -19q55 0 92 45t37 102v15h-24q-186 0 -186 -93z" />
<glyph unicode="&#xab;" horiz-adv-x="1222" d="M76 578l336 421h247l-335 -421l335 -420h-247zM537 578l335 421h248l-336 -421l336 -420h-248z" />
<glyph unicode="&#xac;" horiz-adv-x="1214" d="M86 694v201h999v-602h-208v401h-791z" />
<glyph unicode="&#xad;" horiz-adv-x="952" d="M168 471v227h616v-227h-616z" />
<glyph unicode="&#xae;" horiz-adv-x="1632" d="M82 727q0 154 58 293t156 239t233 159t284 59q151 0 287.5 -59t235 -159t156.5 -239t58 -293q0 -153 -58 -292.5t-156.5 -240t-235 -160t-287.5 -59.5q-149 0 -284 59.5t-233 160t-156 240t-58 292.5zM264 727q0 -162 72 -296.5t198 -212t279 -77.5q155 0 283 77.5 t201 212t73 296.5t-73 296t-201 211t-283 77q-153 0 -279 -77t-198 -211t-72 -296zM557 356v750h311q111 0 178.5 -65t67.5 -173q0 -79 -41.5 -129t-91.5 -65v-4l6 -8q10 -10 21 -35l141 -271h-193l-127 277h-98v-277h-174zM731 756h96q51 0 80 29t29 83q0 53 -28.5 82 t-78.5 29h-98v-223z" />
<glyph unicode="&#xaf;" horiz-adv-x="1009" d="M238 1604v178h536v-178h-536z" />
<glyph unicode="&#xb0;" horiz-adv-x="823" d="M78 1157q0 133 97 228.5t237 95.5q138 0 237 -96t99 -228q0 -134 -98.5 -227.5t-237.5 -93.5q-141 0 -237.5 93t-96.5 228zM276 1157q0 -57 39.5 -96t96.5 -39t97 39t40 96q0 56 -40 95.5t-97 39.5t-96.5 -39.5t-39.5 -95.5z" />
<glyph unicode="&#xb1;" horiz-adv-x="1267" d="M86 483v203h442v485h211v-485h443v-203h-443v-483h-211v483h-442zM115 -174h1040v-201h-1040v201z" />
<glyph unicode="&#xb2;" horiz-adv-x="788" d="M66 956q0 68 23.5 126t61.5 98t84 74.5t92 62.5t84 55t61.5 59t23.5 68q0 46 -36 76.5t-87 30.5q-61 0 -119 -47q-13 -11 -45 -48l-129 113q35 48 78 82q100 80 231 80q135 0 219 -73t84 -195q0 -60 -22.5 -110.5t-59 -86t-81 -66.5t-89.5 -57t-82.5 -51.5t-63 -57.5 t-28.5 -67h285v98h156v-254h-633l-4 33q-4 36 -4 57z" />
<glyph unicode="&#xb3;" horiz-adv-x="784" d="M63 983l101 131q26 -29 51 -47q69 -49 150 -49q61 0 103 36.5t42 92.5q0 57 -46.5 87t-111.5 30h-65l-39 92l176 215l33 31q10 10 14 12v8l-20 -4q-28 -4 -45 -4h-160v-105h-158v256h598v-125l-209 -241q105 -20 167.5 -82t62.5 -166q0 -124 -91.5 -214.5t-240.5 -90.5 q-135 0 -236 69q-45 29 -76 68z" />
<glyph unicode="&#xb4;" horiz-adv-x="1009" d="M258 1550l221 279h283l-277 -279h-227z" />
<glyph unicode="&#xb6;" horiz-adv-x="1271" d="M63 975q0 201 141.5 340t340.5 139h624v-227h-434v-1329h-190v596q-199 0 -340.5 140t-141.5 341zM862 -102v1216h189v-1216h-189z" />
<glyph unicode="&#xb7;" horiz-adv-x="577" d="M162 467v262h254v-262h-254z" />
<glyph unicode="&#xb8;" horiz-adv-x="1009" d="M319 -315q3 -1 12 -4.5t15 -4.5q24 -6 68 -6q102 0 102 62q0 63 -119 63h-41l76 260l121 -26v-17l-35 -123q75 -5 124.5 -48t49.5 -113q0 -63 -38 -106.5t-92 -61t-120 -17.5q-51 0 -86 6q-8 1 -21 4.5t-16 4.5v127z" />
<glyph unicode="&#xb9;" horiz-adv-x="724" d="M57 1524l254 241h170v-743h207v-156h-608v156h207v430q0 19 4 47q2 6 2 17h-4q-5 -10 -8 -13q-21 -21 -25 -24l-84 -80z" />
<glyph unicode="&#xba;" horiz-adv-x="952" d="M117 1133q0 149 104 245.5t254 96.5q154 0 257.5 -96.5t103.5 -245.5q0 -150 -104 -248.5t-255 -98.5q-150 0 -255 98.5t-105 248.5zM147 545v139h660v-139h-660zM303 1133q0 -80 50.5 -131.5t123.5 -51.5t122.5 51t49.5 132q0 79 -49.5 129.5t-122.5 50.5t-123.5 -51 t-50.5 -129z" />
<glyph unicode="&#xbb;" horiz-adv-x="1220" d="M102 158l336 420l-336 421h248l336 -421l-336 -420h-248zM563 158l336 420l-336 421h246l336 -421l-336 -420h-246z" />
<glyph unicode="&#xbc;" horiz-adv-x="2007" d="M90 1212l254 242h170v-743h207v-156h-608v156h206v430q0 12 5 47q2 6 2 16h-4q-3 -6 -9 -12q-2 -2 -5.5 -6.5t-8 -9.5t-10.5 -9l-84 -80zM563 0l688 1454h189l-688 -1454h-189zM1212 209v125l387 565h222v-543h118v-147h-118v-209h-193v209h-416zM1395 356h233v267 q0 9 6 63l4 33h-8q-4 -18 -10 -29q-24 -48 -31 -57l-194 -273v-4z" />
<glyph unicode="&#xbd;" horiz-adv-x="1982" d="M78 1212l254 242h170v-743h207v-156h-609v156h207v430q0 19 4 47q2 6 2 16h-4q-4 -8 -8 -12q-2 -2 -5.5 -6.5t-8.5 -9.5t-11 -9l-83 -80zM557 0l688 1454h189l-689 -1454h-188zM1257 90q0 68 24 126t62 98t84 74.5t91.5 62.5t83.5 55t62 59t24 68q0 46 -36 76t-87 30 q-61 0 -119 -47q-17 -14 -45 -47l-129 113q35 48 78 82q100 80 231 80q135 0 219 -73.5t84 -195.5q0 -69 -30.5 -126.5t-76.5 -94t-100 -71.5t-101.5 -62t-80.5 -63.5t-37 -77.5h285v98h155v-254h-632l-4 33q-5 45 -5 57z" />
<glyph unicode="&#xbe;" horiz-adv-x="2019" d="M86 672l100 131q24 -27 52 -47q69 -49 149 -49q61 0 103 36.5t42 92.5t-46 86t-111 30h-66l-39 92l176 216l33 30q11 11 15 13v8l-21 -4q-28 -4 -45 -4h-160v-105h-157v256h598v-125l-209 -242q105 -20 167 -81.5t62 -165.5q0 -124 -91.5 -214.5t-240.5 -90.5 q-134 0 -235 69q-45 29 -76 68zM573 0l689 1454h188l-688 -1454h-189zM1223 209v125l387 565h221v-543h119v-147h-119v-209h-193v209h-415zM1405 356h233v267q0 10 1 21.5t3 23.5l3 18l4 33h-9q-4 -18 -10 -29q-24 -48 -31 -57l-194 -273v-4z" />
<glyph unicode="&#xbf;" horiz-adv-x="987" d="M90 -45q0 68 20 126.5t51.5 100.5t69.5 79t76.5 70t70 65.5t51.5 72.5t20 84v72h249v-90q0 -70 -25 -130t-62.5 -100t-81.5 -81t-81.5 -74t-62.5 -77.5t-25 -92.5q0 -72 58.5 -122.5t142.5 -50.5q79 0 152 43q31 19 65 46l144 -181q-39 -37 -101 -73q-122 -72 -282 -72 q-120 0 -221 44t-164.5 133t-63.5 208zM446 801v243h252v-243h-252z" />
<glyph unicode="&#xc0;" horiz-adv-x="1484" d="M20 0v201h134l436 1253h305l436 -1253h133v-201h-546v201h143l-90 272h-459l-90 -272h143v-201h-545zM383 1829h281l223 -279h-228zM573 682h336l-137 412l-22 90q-5 35 -5 37h-6l-6 -37q-3 -10 -9 -39.5t-11 -50.5z" />
<glyph unicode="&#xc1;" horiz-adv-x="1492" d="M25 0v201h133l436 1253h305l436 -1253h133v-201h-546v201h143l-90 272h-459l-90 -272h143v-201h-544zM578 682h335l-137 412l-22 90q-4 28 -4 37h-7l-6 -37q-3 -10 -9 -39.5t-11 -50.5zM596 1550l221 279h283l-277 -279h-227z" />
<glyph unicode="&#xc2;" horiz-adv-x="1492" d="M25 0v201h133l436 1253h305l436 -1253h133v-201h-546v201h143l-90 272h-459l-90 -272h143v-201h-544zM422 1550l188 279h267l188 -279h-217l-103 166h-4l-102 -166h-217zM578 682h335l-137 412l-22 90q-4 28 -4 37h-7l-6 -37q-3 -10 -9 -39.5t-11 -50.5z" />
<glyph unicode="&#xc3;" horiz-adv-x="1492" d="M25 0v201h133l436 1253h305l436 -1253h133v-201h-546v201h143l-90 272h-459l-90 -272h143v-201h-544zM371 1552q0 281 229 281q48 0 88.5 -20.5t64 -45t52 -45t55.5 -20.5q41 0 60.5 35t19.5 90h180q0 -281 -231 -281q-48 0 -88.5 20.5t-64 45t-52 45t-55.5 20.5 q-40 0 -59 -34.5t-19 -90.5h-180zM578 682h335l-137 412l-22 90q-4 28 -4 37h-7l-6 -37q-3 -10 -9 -39.5t-11 -50.5z" />
<glyph unicode="&#xc4;" horiz-adv-x="1492" d="M25 0v201h133l436 1253h305l436 -1253h133v-201h-546v201h143l-90 272h-459l-90 -272h143v-201h-544zM416 1591v238h213v-238h-213zM578 682h335l-137 412l-22 90q-4 28 -4 37h-7l-6 -37q-3 -10 -9 -39.5t-11 -50.5zM860 1591v238h213v-238h-213z" />
<glyph unicode="&#xc5;" horiz-adv-x="1492" d="M25 0v201h133l436 1253h305l436 -1253h133v-201h-546v201h143l-90 272h-459l-90 -272h143v-201h-544zM537 1694q0 82 62 129t146 47q85 0 148 -47t63 -129t-62.5 -128t-148.5 -46q-84 0 -146 46t-62 128zM578 682h335l-137 412l-22 90q-4 28 -4 37h-7l-6 -37 q-3 -10 -9 -39.5t-11 -50.5zM672 1694q0 -36 19 -56t54 -20t55.5 20.5t20.5 55.5q0 37 -20.5 58.5t-55.5 21.5q-33 0 -53 -22t-20 -58z" />
<glyph unicode="&#xc6;" horiz-adv-x="1968" d="M25 0v201h120l437 1050h-154v203h1411v-375h-215v160h-414v-399h473v-215h-473v-410h445v160h215v-375h-1100v201h172v428h-358l-170 -428h147v-201h-536zM664 831h278v408h-115z" />
<glyph unicode="&#xc7;" horiz-adv-x="1525" d="M88 733q0 211 99 382.5t270.5 267.5t380.5 96q59 0 127 -8t148 -29t143.5 -52.5t106 -84t42.5 -117.5v-197h-244v113q0 39 -31 68.5t-80 45.5t-100 23.5t-100 7.5q-212 0 -348.5 -139t-136.5 -365q0 -242 140.5 -391t358.5 -149q39 0 87.5 6.5t102.5 21.5t90 45t36 70 v113h243v-199q0 -59 -37 -108t-95 -80.5t-132.5 -54t-145 -32.5t-136.5 -12l-23 -86q75 -5 124.5 -48t49.5 -113q0 -63 -38 -106.5t-92 -61t-120 -17.5q-52 0 -86 6q-8 1 -21 4.5t-16 4.5v127q3 -1 12 -4.5t15 -4.5q24 -6 68 -6q102 0 102 62q0 63 -119 63h-41l53 187 q-191 21 -341 125.5t-233 268t-83 357.5z" />
<glyph unicode="&#xc8;" horiz-adv-x="1310" d="M102 0v201h174v1050h-174v203h1080v-375h-230v160h-407v-399h479v-215h-479v-410h438v164h229v-379h-1110zM322 1829h280l223 -279h-227z" />
<glyph unicode="&#xc9;" horiz-adv-x="1310" d="M102 0v201h174v1050h-174v203h1080v-375h-230v160h-407v-399h479v-215h-479v-410h438v164h229v-379h-1110zM530 1550l222 279h282l-276 -279h-228z" />
<glyph unicode="&#xca;" horiz-adv-x="1310" d="M102 0v201h174v1050h-174v203h1080v-375h-230v160h-407v-399h479v-215h-479v-410h438v164h229v-379h-1110zM356 1550l189 279h266l188 -279h-217l-102 166h-4l-103 -166h-217z" />
<glyph unicode="&#xcb;" horiz-adv-x="1310" d="M102 0v201h174v1050h-174v203h1080v-375h-230v160h-407v-399h479v-215h-479v-410h438v164h229v-379h-1110zM350 1591v238h213v-238h-213zM795 1591v238h213v-238h-213z" />
<glyph unicode="&#xcc;" horiz-adv-x="825" d="M55 1829h281l223 -279h-227zM102 0v201h174v1050h-174v203h619v-203h-176v-1050h176v-201h-619z" />
<glyph unicode="&#xcd;" horiz-adv-x="825" d="M102 0v201h174v1050h-174v203h619v-203h-176v-1050h176v-201h-619zM264 1550l221 279h283l-276 -279h-228z" />
<glyph unicode="&#xce;" horiz-adv-x="825" d="M90 1550l189 279h266l188 -279h-217l-102 166h-4l-103 -166h-217zM102 0v201h174v1050h-174v203h619v-203h-176v-1050h176v-201h-619z" />
<glyph unicode="&#xcf;" horiz-adv-x="825" d="M84 1591v238h213v-238h-213zM102 0v201h174v1050h-174v203h619v-203h-176v-1050h176v-201h-619zM528 1591v238h213v-238h-213z" />
<glyph unicode="&#xd0;" horiz-adv-x="1613" d="M102 0v201h174v415h-149v215h149v420h-174v203h674q342 0 543 -192t201 -533t-201.5 -535t-542.5 -194h-674zM545 215h217q222 0 350.5 133t128.5 381q0 245 -129.5 377.5t-349.5 132.5h-217v-408h284v-215h-284v-401z" />
<glyph unicode="&#xd1;" horiz-adv-x="1734" d="M102 0v201h174v1050h-174v203h443l612 -936q15 -24 37 -80l16 -43h7l-5 49q-4 62 -4 88v719h-180v203h623v-203h-174v-1251h-269l-612 932q-18 31 -37 80l-16 43h-8l6 -47q5 -71 4 -88v-719h180v-201h-623zM500 1552q0 281 229 281q48 0 88.5 -20.5t64 -45t52 -45 t55.5 -20.5q41 0 60.5 35t19.5 90h180q0 -281 -231 -281q-48 0 -88.5 20.5t-64 45t-52 45t-55.5 20.5q-40 0 -59 -34.5t-19 -90.5h-180z" />
<glyph unicode="&#xd2;" horiz-adv-x="1679" d="M86 737q0 154 58 291t157.5 236t240 157t298.5 58q211 0 384 -98t271 -268.5t98 -375.5q0 -211 -98 -386t-271 -275.5t-384 -100.5q-158 0 -298.5 59.5t-240 161t-157.5 242.5t-58 299zM362 737q0 -147 64.5 -268.5t174 -189.5t239.5 -68t239 68t173.5 189.5t64.5 268.5 q0 141 -64.5 257.5t-173.5 182.5t-239 66t-239.5 -66t-174 -182.5t-64.5 -257.5zM483 1829h281l223 -279h-227z" />
<glyph unicode="&#xd3;" horiz-adv-x="1679" d="M86 737q0 154 58 291t157.5 236t240 157t298.5 58q211 0 384 -98t271 -268.5t98 -375.5q0 -211 -98 -386t-271 -275.5t-384 -100.5q-158 0 -298.5 59.5t-240 161t-157.5 242.5t-58 299zM362 737q0 -147 64.5 -268.5t174 -189.5t239.5 -68t239 68t173.5 189.5t64.5 268.5 q0 141 -64.5 257.5t-173.5 182.5t-239 66t-239.5 -66t-174 -182.5t-64.5 -257.5zM692 1550l221 279h283l-276 -279h-228z" />
<glyph unicode="&#xd4;" horiz-adv-x="1679" d="M86 737q0 154 58 291t157.5 236t240 157t298.5 58q211 0 384 -98t271 -268.5t98 -375.5q0 -211 -98 -386t-271 -275.5t-384 -100.5q-158 0 -298.5 59.5t-240 161t-157.5 242.5t-58 299zM362 737q0 -147 64.5 -268.5t174 -189.5t239.5 -68t239 68t173.5 189.5t64.5 268.5 q0 141 -64.5 257.5t-173.5 182.5t-239 66t-239.5 -66t-174 -182.5t-64.5 -257.5zM518 1550l189 279h266l188 -279h-217l-102 166h-4l-103 -166h-217z" />
<glyph unicode="&#xd5;" horiz-adv-x="1679" d="M86 737q0 154 58 291t157.5 236t240 157t298.5 58q211 0 384 -98t271 -268.5t98 -375.5q0 -211 -98 -386t-271 -275.5t-384 -100.5q-158 0 -298.5 59.5t-240 161t-157.5 242.5t-58 299zM362 737q0 -147 64.5 -268.5t174 -189.5t239.5 -68t239 68t173.5 189.5t64.5 268.5 q0 141 -64.5 257.5t-173.5 182.5t-239 66t-239.5 -66t-174 -182.5t-64.5 -257.5zM467 1552q0 281 229 281q48 0 88.5 -20.5t64 -45t52 -45t55.5 -20.5q41 0 60.5 35t19.5 90h181q0 -281 -232 -281q-48 0 -88.5 20.5t-64 45t-52 45t-55.5 20.5q-40 0 -59 -34.5t-19 -90.5 h-180z" />
<glyph unicode="&#xd6;" horiz-adv-x="1679" d="M86 737q0 154 58 291t157.5 236t240 157t298.5 58q211 0 384 -98t271 -268.5t98 -375.5q0 -211 -98 -386t-271 -275.5t-384 -100.5q-158 0 -298.5 59.5t-240 161t-157.5 242.5t-58 299zM362 737q0 -147 64.5 -268.5t174 -189.5t239.5 -68t239 68t173.5 189.5t64.5 268.5 q0 141 -64.5 257.5t-173.5 182.5t-239 66t-239.5 -66t-174 -182.5t-64.5 -257.5zM512 1591v238h213v-238h-213zM956 1591v238h213v-238h-213z" />
<glyph unicode="&#xd7;" horiz-adv-x="1267" d="M92 141l404 445l-404 442l144 143l397 -438l399 438l144 -143l-406 -442l406 -445l-144 -141l-399 438l-397 -438z" />
<glyph unicode="&#xd8;" horiz-adv-x="1675" d="M86 737q0 154 58 291t157.5 236t239.5 157t297 58q196 0 372 -95l90 123l117 -80l-88 -122q124 -104 192 -250.5t68 -317.5q0 -158 -57.5 -299t-157 -242.5t-239 -161t-297.5 -59.5q-218 0 -389 107l-97 -135l-119 80l101 139q-118 106 -183 253t-65 318zM358 737 q0 -212 131 -356l574 797q-103 59 -225 59q-200 0 -340 -143.5t-140 -356.5zM596 287q107 -70 242 -70q201 0 340 148t139 372q0 104 -37 196t-104 159z" />
<glyph unicode="&#xd9;" horiz-adv-x="1656" d="M63 1251v203h619v-203h-176v-704q0 -126 49 -207q38 -61 110 -95t164 -34q191 0 273 131q49 82 49 207v702h-174v203h616v-203h-174v-704q0 -222 -106 -365q-78 -102 -205 -154.5t-279 -52.5q-156 0 -282 53.5t-201 151.5q-108 136 -108 367v704h-175zM471 1829h281 l223 -279h-227z" />
<glyph unicode="&#xda;" horiz-adv-x="1656" d="M63 1251v203h619v-203h-176v-704q0 -126 49 -207q38 -61 110 -95t164 -34q191 0 273 131q49 82 49 207v702h-174v203h616v-203h-174v-704q0 -222 -106 -365q-78 -102 -205 -154.5t-279 -52.5q-156 0 -282 53.5t-201 151.5q-108 136 -108 367v704h-175zM682 1550l221 279 h283l-277 -279h-227z" />
<glyph unicode="&#xdb;" horiz-adv-x="1656" d="M63 1251v203h619v-203h-176v-704q0 -126 49 -207q38 -61 110 -95t164 -34q191 0 273 131q49 82 49 207v702h-174v203h616v-203h-174v-704q0 -222 -106 -365q-78 -102 -205 -154.5t-279 -52.5q-156 0 -282 53.5t-201 151.5q-108 136 -108 367v704h-175zM508 1550l188 279 h267l188 -279h-217l-103 166h-4l-102 -166h-217z" />
<glyph unicode="&#xdc;" horiz-adv-x="1656" d="M63 1251v203h619v-203h-176v-704q0 -126 49 -207q38 -61 110 -95t164 -34q191 0 273 131q49 82 49 207v702h-174v203h616v-203h-174v-704q0 -222 -106 -365q-78 -102 -205 -154.5t-279 -52.5q-156 0 -282 53.5t-201 151.5q-108 136 -108 367v704h-175zM500 1591v238h213 v-238h-213zM944 1591v238h213v-238h-213z" />
<glyph unicode="&#xdd;" horiz-adv-x="1347" d="M20 1251v203h541v-203h-141l221 -381q12 -19 23 -45q3 -4 8 -20h4q5 16 8 20q7 16 25 45l221 381h-139v203h536v-203h-131l-387 -643v-407h174v-201h-618v201h176v407l-387 643h-134zM530 1550l222 279h282l-276 -279h-228z" />
<glyph unicode="&#xde;" horiz-adv-x="1347" d="M102 0v201h174v1050h-174v203h619v-203h-180v-125h319q205 0 322.5 -101.5t117.5 -279.5q0 -180 -118 -285.5t-322 -105.5h-319v-153h180v-201h-619zM541 555h256q116 0 175.5 48.5t59.5 141.5q0 181 -231 181h-260v-371z" />
<glyph unicode="&#xdf;" horiz-adv-x="1306" d="M59 0v195h152v888q0 123 69 215t175 136.5t229 44.5q178 0 300 -102t122 -255q0 -51 -18.5 -96t-45.5 -77t-54 -61t-45.5 -61t-18.5 -65q0 -32 34 -66t82 -69t96.5 -76t82.5 -102.5t34 -133.5q0 -80 -30.5 -144t-82.5 -103.5t-117 -60.5t-138 -21q-120 0 -207 26 q-42 12 -68 27v221q40 -17 70 -27q80 -26 168 -26q63 0 104 30t41 93q0 32 -24.5 64t-61.5 58t-79.5 59t-79.5 66t-61.5 80t-24.5 99q0 45 18.5 86.5t45.5 73.5t54 63t45.5 67t18.5 72q0 58 -44 98.5t-124 40.5q-86 0 -145.5 -48.5t-59.5 -143.5v-1065h-412z" />
<glyph unicode="&#xe0;" d="M57 293q0 66 24 120t62.5 89.5t92.5 62.5t106.5 42t113 24t103.5 11.5t86 2.5h66v35q0 94 -52.5 137t-140.5 43q-97 0 -205 -49q-37 -16 -90 -51l-96 180q55 42 113 66q137 63 301 63q211 0 320.5 -105.5t109.5 -306.5v-417q0 -45 45 -45h94v-195h-246q-68 0 -100.5 31.5 t-32.5 79.5v12q0 19 4 39q2 6 2 14h-4q-25 -51 -74 -100q-109 -101 -256 -101q-93 0 -170 34t-126.5 108t-49.5 176zM193 1452h280l223 -278h-227zM319 313q0 -62 41 -102.5t111 -40.5q101 0 171.5 89.5t70.5 193.5v34h-43q-32 0 -63 -2t-74 -7.5t-78.5 -18t-67.5 -31 t-50 -48t-18 -67.5z" />
<glyph unicode="&#xe1;" d="M57 293q0 66 24 120t62.5 89.5t92.5 62.5t106.5 42t113 24t103.5 11.5t86 2.5h66v35q0 94 -52.5 137t-140.5 43q-97 0 -205 -49q-37 -16 -90 -51l-96 180q55 42 113 66q137 63 301 63q211 0 320.5 -105.5t109.5 -306.5v-417q0 -45 45 -45h94v-195h-246q-68 0 -100.5 31.5 t-32.5 79.5v12q0 19 4 39q2 6 2 14h-4q-25 -51 -74 -100q-109 -101 -256 -101q-93 0 -170 34t-126.5 108t-49.5 176zM319 313q0 -62 41 -102.5t111 -40.5q101 0 171.5 89.5t70.5 193.5v34h-43q-32 0 -63 -2t-74 -7.5t-78.5 -18t-67.5 -31t-50 -48t-18 -67.5zM401 1174 l222 278h282l-276 -278h-228z" />
<glyph unicode="&#xe2;" d="M57 293q0 66 24 120t62.5 89.5t92.5 62.5t106.5 42t113 24t103.5 11.5t86 2.5h66v35q0 94 -52.5 137t-140.5 43q-97 0 -205 -49q-37 -16 -90 -51l-96 180q55 42 113 66q137 63 301 63q211 0 320.5 -105.5t109.5 -306.5v-417q0 -45 45 -45h94v-195h-246q-68 0 -100.5 31.5 t-32.5 79.5v12q0 19 4 39q2 6 2 14h-4q-25 -51 -74 -100q-109 -101 -256 -101q-93 0 -170 34t-126.5 108t-49.5 176zM227 1174l189 278h266l188 -278h-217l-102 165h-4l-103 -165h-217zM319 313q0 -62 41 -102.5t111 -40.5q101 0 171.5 89.5t70.5 193.5v34h-43q-32 0 -63 -2 t-74 -7.5t-78.5 -18t-67.5 -31t-50 -48t-18 -67.5z" />
<glyph unicode="&#xe3;" d="M57 293q0 66 24 120t62.5 89.5t92.5 62.5t106.5 42t113 24t103.5 11.5t86 2.5h66v35q0 94 -52.5 137t-140.5 43q-97 0 -205 -49q-37 -16 -90 -51l-96 180q55 42 113 66q137 63 301 63q211 0 320.5 -105.5t109.5 -306.5v-417q0 -45 45 -45h94v-195h-246q-68 0 -100.5 31.5 t-32.5 79.5v12q0 19 4 39q2 6 2 14h-4q-25 -51 -74 -100q-109 -101 -256 -101q-93 0 -170 34t-126.5 108t-49.5 176zM176 1176q0 280 230 280q48 0 88.5 -20.5t64 -45t52 -45t55.5 -20.5q41 0 60 35t19 90h181q0 -281 -232 -281q-48 0 -88.5 20.5t-64 45t-52 45t-55.5 20.5 q-40 0 -59 -34.5t-19 -89.5h-180zM319 313q0 -62 41 -102.5t111 -40.5q101 0 171.5 89.5t70.5 193.5v34h-43q-32 0 -63 -2t-74 -7.5t-78.5 -18t-67.5 -31t-50 -48t-18 -67.5z" />
<glyph unicode="&#xe4;" d="M57 293q0 66 24 120t62.5 89.5t92.5 62.5t106.5 42t113 24t103.5 11.5t86 2.5h66v35q0 94 -52.5 137t-140.5 43q-97 0 -205 -49q-37 -16 -90 -51l-96 180q55 42 113 66q137 63 301 63q211 0 320.5 -105.5t109.5 -306.5v-417q0 -45 45 -45h94v-195h-246q-68 0 -100.5 31.5 t-32.5 79.5v12q0 19 4 39q2 6 2 14h-4q-25 -51 -74 -100q-109 -101 -256 -101q-93 0 -170 34t-126.5 108t-49.5 176zM221 1214v238h213v-238h-213zM319 313q0 -62 41 -102.5t111 -40.5q101 0 171.5 89.5t70.5 193.5v34h-43q-32 0 -63 -2t-74 -7.5t-78.5 -18t-67.5 -31 t-50 -48t-18 -67.5zM666 1214v238h213v-238h-213z" />
<glyph unicode="&#xe5;" d="M57 293q0 66 24 120t62.5 89.5t92.5 62.5t106.5 42t113 24t103.5 11.5t86 2.5h66v35q0 94 -52.5 137t-140.5 43q-97 0 -205 -49q-37 -16 -90 -51l-96 180q55 42 113 66q137 63 301 63q211 0 320.5 -105.5t109.5 -306.5v-417q0 -45 45 -45h94v-195h-246q-68 0 -100.5 31.5 t-32.5 79.5v12q0 19 4 39q2 6 2 14h-4q-25 -51 -74 -100q-109 -101 -256 -101q-93 0 -170 34t-126.5 108t-49.5 176zM319 313q0 -62 41 -102.5t111 -40.5q101 0 171.5 89.5t70.5 193.5v34h-43q-32 0 -63 -2t-74 -7.5t-78.5 -18t-67.5 -31t-50 -48t-18 -67.5zM342 1317 q0 82 62.5 129t146.5 47q85 0 148 -47t63 -129t-62.5 -128t-148.5 -46q-84 0 -146.5 46t-62.5 128zM477 1317q0 -35 19.5 -55.5t54.5 -20.5t55.5 20.5t20.5 55.5q0 37 -20.5 58.5t-55.5 21.5q-33 0 -53.5 -22t-20.5 -58z" />
<glyph unicode="&#xe6;" horiz-adv-x="1753" d="M57 297q0 344 613 344h41v29q0 104 -50.5 147t-144.5 43q-99 0 -207 -49q-37 -16 -90 -51l-96 180q55 42 113 66q137 63 303 63q128 0 205 -39t122 -115h4q127 154 349 154q212 0 336 -141t124 -357q0 -37 -2 -55l-4 -31h-715q13 -146 98 -221.5t210 -75.5q110 0 213 58 q49 24 88 57l100 -178q-48 -39 -113 -74q-140 -76 -307 -76q-151 0 -261 60.5t-175 169.5h-4q-9 -20 -24.5 -43t-49.5 -58t-75 -61.5t-105.5 -46t-138.5 -19.5q-149 0 -253 86.5t-104 233.5zM313 309q0 -57 42 -96t114 -39q101 0 172.5 88.5t71.5 190.5v30h-72 q-59 0 -111 -7.5t-104 -25t-82.5 -53.5t-30.5 -88zM967 641h450q-4 101 -61.5 163t-138.5 62q-99 0 -163 -58t-87 -167z" />
<glyph unicode="&#xe7;" horiz-adv-x="1142" d="M70 520q0 154 72.5 279.5t201.5 197.5t287 72q70 0 141 -14t137.5 -41.5t108 -78.5t41.5 -116v-143h-225v69q0 50 -60 76.5t-135 26.5q-141 0 -224 -89t-83 -233q0 -155 93.5 -243t233.5 -88q165 0 326 127l92 -185q-66 -61 -175 -109.5t-240 -52.5l-23 -86 q75 -5 124.5 -48t49.5 -113q0 -63 -38 -106.5t-92 -61t-120 -17.5q-51 0 -86 6q-8 1 -21 4.5t-16 4.5v127q3 -1 12 -4.5t15 -4.5q24 -6 68 -6q100 0 100 62q0 63 -117 63h-41l53 191q-199 34 -329.5 176.5t-130.5 357.5z" />
<glyph unicode="&#xe8;" horiz-adv-x="1142" d="M72 522q0 242 147.5 394.5t382.5 152.5q218 0 341.5 -140.5t123.5 -355.5q0 -37 -2 -55l-4 -33h-723q12 -137 100.5 -213.5t212.5 -76.5q117 0 215 55q40 19 88 55l101 -184q-34 -30 -113 -72q-140 -74 -309 -74q-126 0 -233 44t-178 119t-110.5 174t-39.5 210zM244 1452 h280l224 -278h-228zM344 639h455q-4 107 -60.5 168t-142.5 61q-99 0 -166 -62t-86 -167z" />
<glyph unicode="&#xe9;" horiz-adv-x="1142" d="M72 522q0 242 147.5 394.5t382.5 152.5q218 0 341.5 -140.5t123.5 -355.5q0 -37 -2 -55l-4 -33h-723q12 -137 100.5 -213.5t212.5 -76.5q117 0 215 55q40 19 88 55l101 -184q-34 -30 -113 -72q-140 -74 -309 -74q-126 0 -233 44t-178 119t-110.5 174t-39.5 210zM344 639 h455q-4 107 -60.5 168t-142.5 61q-99 0 -166 -62t-86 -167zM453 1174l221 278h282l-276 -278h-227z" />
<glyph unicode="&#xea;" horiz-adv-x="1142" d="M72 522q0 242 147.5 394.5t382.5 152.5q218 0 341.5 -140.5t123.5 -355.5q0 -37 -2 -55l-4 -33h-723q12 -137 100.5 -213.5t212.5 -76.5q117 0 215 55q40 19 88 55l101 -184q-34 -30 -113 -72q-140 -74 -309 -74q-126 0 -233 44t-178 119t-110.5 174t-39.5 210zM279 1174 l188 278h266l189 -278h-217l-103 165h-4l-102 -165h-217zM344 639h455q-4 107 -60.5 168t-142.5 61q-99 0 -166 -62t-86 -167z" />
<glyph unicode="&#xeb;" horiz-adv-x="1142" d="M72 522q0 242 147.5 394.5t382.5 152.5q218 0 341.5 -140.5t123.5 -355.5q0 -37 -2 -55l-4 -33h-723q12 -137 100.5 -213.5t212.5 -76.5q117 0 215 55q40 19 88 55l101 -184q-34 -30 -113 -72q-140 -74 -309 -74q-126 0 -233 44t-178 119t-110.5 174t-39.5 210zM272 1214 v238h213v-238h-213zM344 639h455q-4 107 -60.5 168t-142.5 61q-99 0 -166 -62t-86 -167zM717 1214v238h213v-238h-213z" />
<glyph unicode="&#xec;" horiz-adv-x="702" d="M8 1452h281l223 -278h-227zM86 850v194h412v-849h143v-195h-547v195h144v655h-152z" />
<glyph unicode="&#xed;" horiz-adv-x="702" d="M86 850v194h412v-849h143v-195h-547v195h144v655h-152zM219 1174l221 278h283l-277 -278h-227z" />
<glyph unicode="&#xee;" horiz-adv-x="702" d="M45 1174l188 278h267l188 -278h-217l-102 165h-4l-103 -165h-217zM86 850v194h412v-849h143v-195h-547v195h144v655h-152z" />
<glyph unicode="&#xef;" horiz-adv-x="702" d="M57 1214v240h211v-240h-211zM86 850v194h412v-849h143v-195h-547v195h144v655h-152zM444 1214v240h213v-240h-213z" />
<glyph unicode="&#xf0;" horiz-adv-x="1212" d="M76 485q0 123 55 228t166 172t258 67q76 0 154 -28q32 -11 55 -31h4q-62 139 -199 225l-370 -157l-13 124l244 107q-108 55 -254 90l72 205q261 -58 461 -178l286 125l13 -127l-189 -82q135 -119 212 -284.5t77 -371.5q0 -87 -18 -169t-59 -160t-101 -136.5t-151.5 -93.5 t-203.5 -35q-116 0 -212 43t-157.5 114.5t-95.5 163t-34 189.5zM338 479q0 -74 25.5 -136.5t82 -105t134.5 -42.5q68 0 121 29t83.5 77t46 104.5t15.5 116.5q0 100 -66.5 164t-177.5 64q-86 0 -147.5 -39.5t-89 -99.5t-27.5 -132z" />
<glyph unicode="&#xf1;" horiz-adv-x="1427" d="M84 850v194h274q136 0 136 -116v-47q0 -23 -2 -31q-3 -9 -3 -14h5q4 13 18.5 37t47 59t74 64.5t107 51t138.5 21.5q350 0 350 -397v-477h151v-195h-409v618q0 105 -36.5 159t-129.5 54q-90 0 -160 -53t-104.5 -134.5t-34.5 -174.5v-274h149v-195h-561v195h152v610 q0 45 -45 45h-117zM377 1176q0 280 229 280q48 0 88.5 -20.5t64 -45t52 -45t55.5 -20.5q41 0 60.5 35t19.5 90h180q0 -281 -231 -281q-48 0 -88.5 20.5t-64 45t-52 45t-55.5 20.5q-40 0 -59 -34.5t-19 -89.5h-180z" />
<glyph unicode="&#xf2;" horiz-adv-x="1288" d="M70 522q0 156 77 282t208 195.5t288 69.5q158 0 289.5 -69.5t209 -195.5t77.5 -282q0 -157 -77.5 -283t-208 -195t-288.5 -69q-159 0 -290 69t-208 194.5t-77 283.5zM287 1452h280l224 -278h-228zM334 522q0 -143 90.5 -234t220.5 -91t219.5 91t89.5 234q0 142 -89.5 234 t-219.5 92t-220.5 -92t-90.5 -234z" />
<glyph unicode="&#xf3;" horiz-adv-x="1288" d="M70 522q0 156 77 282t208 195.5t288 69.5q158 0 289.5 -69.5t209 -195.5t77.5 -282q0 -157 -77.5 -283t-208 -195t-288.5 -69q-159 0 -290 69t-208 194.5t-77 283.5zM334 522q0 -143 90.5 -234t220.5 -91t219.5 91t89.5 234q0 142 -89.5 234t-219.5 92t-220.5 -92 t-90.5 -234zM498 1174l221 278h282l-276 -278h-227z" />
<glyph unicode="&#xf4;" horiz-adv-x="1288" d="M70 522q0 156 77 282t208 195.5t288 69.5q158 0 289.5 -69.5t209 -195.5t77.5 -282q0 -157 -77.5 -283t-208 -195t-288.5 -69q-159 0 -290 69t-208 194.5t-77 283.5zM324 1174l188 278h266l189 -278h-217l-103 165h-4l-102 -165h-217zM334 522q0 -143 90.5 -234 t220.5 -91t219.5 91t89.5 234q0 142 -89.5 234t-219.5 92t-220.5 -92t-90.5 -234z" />
<glyph unicode="&#xf5;" horiz-adv-x="1288" d="M70 522q0 156 77 282t208 195.5t288 69.5q158 0 289.5 -69.5t209 -195.5t77.5 -282q0 -157 -77.5 -283t-208 -195t-288.5 -69q-159 0 -290 69t-208 194.5t-77 283.5zM270 1176q0 280 230 280q48 0 88.5 -20.5t64 -45t52 -45t55.5 -20.5q41 0 60.5 35t19.5 90h180 q0 -281 -232 -281q-48 0 -88.5 20.5t-64 45t-52 45t-55.5 20.5q-77 0 -77 -124h-181zM334 522q0 -143 90.5 -234t220.5 -91t219.5 91t89.5 234q0 142 -89.5 234t-219.5 92t-220.5 -92t-90.5 -234z" />
<glyph unicode="&#xf6;" horiz-adv-x="1288" d="M70 522q0 156 77 282t208 195.5t288 69.5q158 0 289.5 -69.5t209 -195.5t77.5 -282q0 -157 -77.5 -283t-208 -195t-288.5 -69q-159 0 -290 69t-208 194.5t-77 283.5zM315 1214v238h213v-238h-213zM334 522q0 -143 90.5 -234t220.5 -91t219.5 91t89.5 234q0 142 -89.5 234 t-219.5 92t-220.5 -92t-90.5 -234zM760 1214v238h213v-238h-213z" />
<glyph unicode="&#xf7;" horiz-adv-x="1267" d="M100 483v203h1067v-203h-1067zM516 55v221h236v-221h-236zM516 895v221h236v-221h-236z" />
<glyph unicode="&#xf8;" horiz-adv-x="1286" d="M70 522q0 156 77 282t208 195.5t288 69.5q143 0 279 -68l82 117l102 -71l-82 -111q91 -76 143 -183t52 -231q0 -157 -78 -283t-209 -195t-289 -69q-141 0 -264 60l-84 -119l-102 74l77 108q-94 75 -147 184t-53 240zM334 522q0 -127 84 -221l366 512q-80 35 -141 35 q-130 0 -219.5 -92t-89.5 -234zM516 225q68 -28 127 -28q130 0 220.5 91t90.5 234q0 111 -75 207z" />
<glyph unicode="&#xf9;" horiz-adv-x="1386" d="M45 850v194h422v-626q0 -103 36 -157t128 -54q87 0 154 54.5t101 138.5t34 180v270h-160v194h420v-806q0 -45 45 -45h100v-193h-258q-135 0 -135 117v39q0 8 1 19.5t1 14.5v15h-4q-5 -14 -19 -37.5t-46 -58.5t-72.5 -63.5t-105.5 -49.5t-138 -21q-163 0 -252.5 96 t-89.5 302v477h-162zM307 1452h281l223 -278h-227z" />
<glyph unicode="&#xfa;" horiz-adv-x="1386" d="M45 850v194h422v-626q0 -103 36 -157t128 -54q87 0 154 54.5t101 138.5t34 180v270h-160v194h420v-806q0 -45 45 -45h100v-193h-258q-135 0 -135 117v39q0 8 1 19.5t1 14.5v15h-4q-5 -14 -19 -37.5t-46 -58.5t-72.5 -63.5t-105.5 -49.5t-138 -21q-163 0 -252.5 96 t-89.5 302v477h-162zM518 1174l221 278h283l-277 -278h-227z" />
<glyph unicode="&#xfb;" horiz-adv-x="1386" d="M45 850v194h422v-626q0 -103 36 -157t128 -54q87 0 154 54.5t101 138.5t34 180v270h-160v194h420v-806q0 -45 45 -45h100v-193h-258q-135 0 -135 117v39q0 8 1 19.5t1 14.5v15h-4q-5 -14 -19 -37.5t-46 -58.5t-72.5 -63.5t-105.5 -49.5t-138 -21q-163 0 -252.5 96 t-89.5 302v477h-162zM344 1174l188 278h267l188 -278h-217l-102 165h-4l-103 -165h-217z" />
<glyph unicode="&#xfc;" horiz-adv-x="1386" d="M45 850v194h422v-626q0 -103 36 -157t128 -54q87 0 154 54.5t101 138.5t34 180v270h-160v194h420v-806q0 -45 45 -45h100v-193h-258q-135 0 -135 117v39q0 8 1 19.5t1 14.5v15h-4q-5 -14 -19 -37.5t-46 -58.5t-72.5 -63.5t-105.5 -49.5t-138 -21q-163 0 -252.5 96 t-89.5 302v477h-162zM336 1214v238h213v-238h-213zM780 1214v238h213v-238h-213z" />
<glyph unicode="&#xfd;" horiz-adv-x="1241" d="M20 850v194h515v-194h-123l190 -528q4 -11 7.5 -24t6.5 -27.5t5 -22.5q4 -24 4 -35h6l6 35q14 55 22 74l189 528h-121v194h494v-194h-119l-385 -985q-58 -150 -165.5 -222.5t-248.5 -72.5q-93 0 -184 35q-36 13 -70 37l84 190q23 -16 43 -25q46 -24 115 -24q63 0 111 32 t73 89l29 65l-359 881h-125zM483 1174l222 278h282l-276 -278h-228z" />
<glyph unicode="&#xfe;" horiz-adv-x="1271" d="M4 1260v194h418v-453v-63q0 -19 -2 -25h4q24 43 68 78q98 78 237 78q141 0 248.5 -71.5t164 -195.5t56.5 -280q0 -239 -132.5 -393t-340.5 -154q-147 0 -236 74q-41 35 -67 74h-4q0 -15 2 -25q2 -16 2 -65v-248h151v-195h-561v195h150v1475h-158zM416 520 q0 -152 71 -238.5t191 -86.5q114 0 186 92t72 235t-70 234.5t-184 91.5q-116 0 -191 -79.5t-75 -248.5z" />
<glyph unicode="&#xff;" horiz-adv-x="1241" d="M20 850v194h515v-194h-123l190 -528q4 -11 7.5 -24t6.5 -27.5t5 -22.5q4 -24 4 -35h6l6 35q14 55 22 74l189 528h-121v194h494v-194h-119l-385 -985q-58 -150 -165.5 -222.5t-248.5 -72.5q-93 0 -184 35q-36 13 -70 37l84 190q23 -16 43 -25q46 -24 115 -24q63 0 111 32 t73 89l29 65l-359 881h-125zM301 1214v238h213v-238h-213zM745 1214v238h213v-238h-213z" />
<glyph unicode="&#x152;" horiz-adv-x="2021" d="M86 729q0 154 59.5 291.5t161 236t243 156t300.5 57.5q62 0 142 -8t116 -8h784v-375h-215v160h-413v-401h471v-213h-471v-410h444v160h215v-375h-815q-33 0 -114.5 -9t-143.5 -9q-159 0 -300.5 58.5t-243 158t-161 238t-59.5 292.5zM358 729q0 -223 140 -374.5 t352 -151.5q68 0 104 8l41 6v1018l-41 8q-36 8 -104 8q-140 0 -253 -70t-176 -189.5t-63 -262.5z" />
<glyph unicode="&#x153;" horiz-adv-x="2021" d="M70 520q0 160 77 286.5t205.5 194.5t282.5 68q281 0 432 -215h4q135 215 412 215q147 0 253.5 -67t158 -178t51.5 -251q0 -39 -2 -57l-5 -33h-718q17 -141 103 -218t208 -77q110 0 213 58q49 24 88 57l100 -178q-50 -41 -112 -74q-140 -76 -308 -76q-294 0 -436 222h-4 q-156 -222 -438 -222q-155 0 -283 66.5t-205 192t-77 286.5zM332 520q0 -145 90 -234t221 -89q132 0 220.5 88.5t88.5 236.5q0 145 -90 235.5t-219 90.5q-130 0 -220.5 -91.5t-90.5 -236.5zM1227 639h456q-5 103 -60.5 166t-141.5 63q-101 0 -168 -61.5t-86 -167.5z" />
<glyph unicode="&#x178;" horiz-adv-x="1347" d="M20 1251v203h541v-203h-141l221 -381q12 -19 23 -45q3 -4 8 -20h4q5 16 8 20q7 16 25 45l221 381h-139v203h536v-203h-131l-387 -643v-407h174v-201h-618v201h176v407l-387 643h-134zM350 1591v238h213v-238h-213zM795 1591v238h213v-238h-213z" />
<glyph unicode="&#x2c6;" horiz-adv-x="1011" d="M184 1550l189 279h266l188 -279h-217l-102 166h-4l-103 -166h-217z" />
<glyph unicode="&#x2dc;" horiz-adv-x="1009" d="M131 1552q0 281 229 281q48 0 88.5 -20.5t64 -45t52.5 -45t56 -20.5q41 0 60 35t19 90h181q0 -281 -232 -281q-48 0 -88.5 20.5t-64 45t-52 45t-55.5 20.5q-40 0 -59 -34.5t-19 -90.5h-180z" />
<glyph unicode="&#x2000;" horiz-adv-x="935" />
<glyph unicode="&#x2001;" horiz-adv-x="1870" />
<glyph unicode="&#x2002;" horiz-adv-x="935" />
<glyph unicode="&#x2003;" horiz-adv-x="1870" />
<glyph unicode="&#x2004;" horiz-adv-x="623" />
<glyph unicode="&#x2005;" horiz-adv-x="467" />
<glyph unicode="&#x2006;" horiz-adv-x="311" />
<glyph unicode="&#x2007;" horiz-adv-x="311" />
<glyph unicode="&#x2008;" horiz-adv-x="233" />
<glyph unicode="&#x2009;" horiz-adv-x="374" />
<glyph unicode="&#x200a;" horiz-adv-x="103" />
<glyph unicode="&#x2010;" horiz-adv-x="952" d="M168 471v227h616v-227h-616z" />
<glyph unicode="&#x2011;" horiz-adv-x="952" d="M168 471v227h616v-227h-616z" />
<glyph unicode="&#x2012;" horiz-adv-x="952" d="M168 471v227h616v-227h-616z" />
<glyph unicode="&#x2013;" horiz-adv-x="1474" d="M170 483v203h1135v-203h-1135z" />
<glyph unicode="&#x2014;" horiz-adv-x="1884" d="M170 483v203h1544v-203h-1544z" />
<glyph unicode="&#x2018;" horiz-adv-x="491" d="M82 1004l160 475h184l-104 -475h-240z" />
<glyph unicode="&#x2019;" horiz-adv-x="475" d="M90 1004l105 475h237l-160 -475h-182z" />
<glyph unicode="&#x201a;" horiz-adv-x="526" d="M66 -211l102 475h233l-159 -475h-176z" />
<glyph unicode="&#x201c;" horiz-adv-x="833" d="M82 1004l160 475h184l-104 -475h-240zM424 1004l160 475h184l-104 -475h-240z" />
<glyph unicode="&#x201d;" horiz-adv-x="819" d="M90 1004l105 475h239l-160 -475h-184zM432 1004l103 475h241l-160 -475h-184z" />
<glyph unicode="&#x201e;" horiz-adv-x="860" d="M66 -211l102 475h233l-159 -475h-176zM399 -211l103 475h233l-160 -475h-176z" />
<glyph unicode="&#x2022;" horiz-adv-x="868" d="M92 596q0 141 100.5 241.5t241.5 100.5t241.5 -100.5t100.5 -241.5t-100.5 -241.5t-241.5 -100.5t-241.5 100.5t-100.5 241.5z" />
<glyph unicode="&#x2026;" horiz-adv-x="1705" d="M143 0v262h252v-262h-252zM725 0v262h254v-262h-254zM1309 0v262h254v-262h-254z" />
<glyph unicode="&#x202f;" horiz-adv-x="374" />
<glyph unicode="&#x2039;" horiz-adv-x="761" d="M76 578l336 421h247l-335 -421l335 -420h-247z" />
<glyph unicode="&#x203a;" horiz-adv-x="761" d="M102 158l336 420l-336 421h248l336 -421l-336 -420h-248z" />
<glyph unicode="&#x205f;" horiz-adv-x="467" />
<glyph unicode="&#x20ac;" horiz-adv-x="1236" d="M84 498v149h115q-11 86 -2 168h-113v150h141q67 225 258 369.5t439 144.5q64 0 153 -13q46 -7 66 -14l-62 -227l-51 12q-58 10 -113 10q-145 0 -252 -76t-155 -206h520l-33 -150h-524q-8 -73 2 -168h492l-33 -149h-414q50 -131 159 -209t249 -78q74 0 135 14l57 15 l45 -228l-69 -18q-82 -19 -172 -19q-258 0 -446 145.5t-251 377.5h-141z" />
<glyph unicode="&#x2122;" horiz-adv-x="1974" d="M51 1282v172h801v-172h-301v-735h-197v735h-303zM907 547l72 907h180l189 -428q5 -9 10.5 -29.5t7.5 -25.5l8 -31h4q4 22 8 31l21 55l188 428h181l69 -907h-196l-33 467v43q0 14 2 20h-4l-160 -364h-154l-159 364h-4q2 -6 2 -20v-43l-37 -467h-195z" />
<glyph unicode="&#xe000;" horiz-adv-x="1044" d="M0 0v1044h1044v-1044h-1044z" />
</font>
</defs>
</svg>
